<svg viewBox="0 0 900 350" width="900" height="350" xmlns="http://www.w3.org/2000/svg" role="img" aria-label="GitHub statistics for Andy-XO">
  <defs>
    <linearGradient id="acc" x1="0" y1="0" x2="1" y2="0">
      <stop offset="0%" stop-color="#00D9FF"/><stop offset="50%" stop-color="#33A1FF"/><stop offset="100%" stop-color="#6E7BFF"/>
    </linearGradient>
    <radialGradient id="glow" cx="50%" cy="0%" r="80%">
      <stop offset="0%" stop-color="#00D9FF" stop-opacity="0.16"/><stop offset="100%" stop-color="#00D9FF" stop-opacity="0"/>
    </radialGradient>
    <pattern id="grid" width="36" height="36" patternUnits="userSpaceOnUse">
      <path d="M36 0 L0 0 0 36" fill="none" stroke="#12243B" stroke-width="1"/>
    </pattern>
  </defs>
  <rect width="900" height="350" rx="16" fill="#05070D"/>
  <rect width="900" height="350" rx="16" fill="url(#grid)" opacity="0.5"/>
  <rect width="900" height="160" fill="url(#glow)"/>
  <g stroke="#00D9FF" stroke-width="2" opacity="0.6" fill="none">
    <path d="M18 18 H50 M18 18 V50"/><path d="M882 18 H850 M882 18 V50"/>
    <path d="M18 332 H50 M18 332 V300"/><path d="M882 332 H850 M882 332 V300"/>
  </g>

  <text x="40" y="52" font-family="'Segoe UI',Arial,sans-serif" font-size="13" letter-spacing="5" fill="#5FC9F8" font-weight="600">GITHUB ANALYTICS</text>
  <text x="40" y="80" font-family="'Segoe UI',Arial,sans-serif" font-size="24" font-weight="800" fill="#F4FAFF">@Andy-XO</text>
  <rect x="40" y="92" width="120" height="3" rx="1.5" fill="url(#acc)"/>
  <g>
    <rect x="40" y="116" width="196" height="96" rx="12" fill="#0A0F1C" stroke="#16324B" stroke-width="1"/>
    <rect x="40" y="116" width="4" height="96" rx="2" fill="url(#acc)"/>
    <text x="62" y="162" font-family="'Segoe UI',Arial,sans-serif" font-size="34" font-weight="800" fill="#F4FAFF">3</text>
    <text x="62" y="188" font-family="'Segoe UI',Arial,sans-serif" font-size="11" letter-spacing="2" fill="#9FB4C7" font-weight="600">FOLLOWERS</text>
  </g>
  <g>
    <rect x="254" y="116" width="196" height="96" rx="12" fill="#0A0F1C" stroke="#16324B" stroke-width="1"/>
    <rect x="254" y="116" width="4" height="96" rx="2" fill="url(#acc)"/>
    <text x="276" y="162" font-family="'Segoe UI',Arial,sans-serif" font-size="34" font-weight="800" fill="#F4FAFF">3</text>
    <text x="276" y="188" font-family="'Segoe UI',Arial,sans-serif" font-size="11" letter-spacing="2" fill="#9FB4C7" font-weight="600">PUBLIC REPOS</text>
  </g>
  <g>
    <rect x="468" y="116" width="196" height="96" rx="12" fill="#0A0F1C" stroke="#16324B" stroke-width="1"/>
    <rect x="468" y="116" width="4" height="96" rx="2" fill="url(#acc)"/>
    <text x="490" y="162" font-family="'Segoe UI',Arial,sans-serif" font-size="34" font-weight="800" fill="#F4FAFF">0</text>
    <text x="490" y="188" font-family="'Segoe UI',Arial,sans-serif" font-size="11" letter-spacing="2" fill="#9FB4C7" font-weight="600">TOTAL STARS</text>
  </g>
  <g>
    <rect x="682" y="116" width="196" height="96" rx="12" fill="#0A0F1C" stroke="#16324B" stroke-width="1"/>
    <rect x="682" y="116" width="4" height="96" rx="2" fill="url(#acc)"/>
    <text x="704" y="162" font-family="'Segoe UI',Arial,sans-serif" font-size="34" font-weight="800" fill="#F4FAFF">0</text>
    <text x="704" y="188" font-family="'Segoe UI',Arial,sans-serif" font-size="11" letter-spacing="2" fill="#9FB4C7" font-weight="600">TOTAL FORKS</text>
  </g>
  <text x="40" y="236" font-family="'Segoe UI',Arial,sans-serif" font-size="12" letter-spacing="3" fill="#5FC9F8" font-weight="600">MOST USED LANGUAGES</text>
  <clipPath id="barclip"><rect x="40" y="250" width="820" height="16" rx="8"/></clipPath>
  <g clip-path="url(#barclip)">
    <rect x="40.0" y="250" width="494.8" height="16" fill="#00D9FF"/>
    <rect x="534.8" y="250" width="315.7" height="16" fill="#33A1FF"/>
    <rect x="850.6" y="250" width="5.0" height="16" fill="#6E7BFF"/>
    <rect x="855.5" y="250" width="4.5" height="16" fill="#3FCF8E"/>
    <rect x="40" y="250" width="820" height="16" fill="none"/>
  </g>
  <circle cx="46" cy="292" r="6" fill="#00D9FF"/>
  <text x="60" y="296" font-family="'Segoe UI',Arial,sans-serif" font-size="13" fill="#9FB4C7">JavaScript 60.3%</text>
  <circle cx="195.6" cy="292" r="6" fill="#33A1FF"/>
  <text x="209.6" y="296" font-family="'Segoe UI',Arial,sans-serif" font-size="13" fill="#9FB4C7">Python 38.5%</text>
  <circle cx="314.79999999999995" cy="292" r="6" fill="#6E7BFF"/>
  <text x="328.79999999999995" y="296" font-family="'Segoe UI',Arial,sans-serif" font-size="13" fill="#9FB4C7">HTML 0.6%</text>
  <circle cx="411.19999999999993" cy="292" r="6" fill="#3FCF8E"/>
  <text x="425.19999999999993" y="296" font-family="'Segoe UI',Arial,sans-serif" font-size="13" fill="#9FB4C7">CSS 0.5%</text>
  <line x1="40" y1="324" x2="860" y2="324" stroke="#12243B" stroke-width="1"/>
  <circle cx="40" cy="324" r="3.5" fill="#00D9FF">
    <animate attributeName="cx" values="40;860;40" dur="6s" repeatCount="indefinite"/>
    <animate attributeName="opacity" values="0.2;1;0.2" dur="6s" repeatCount="indefinite"/>
  </circle>
</svg>
